# xmcd
#
# Track frame offsets:
#	182
#	18320
#	35662
#	62507
#	105257
#	131567
#
# Disc length: 2063 seconds
# Revision: 0
# Processed by: cddbd v1.5.2PL0 Copyright (c) Steve Scherf et al.
# Submitted via: dBpowerAMP V12.0
#
DISCID=43080d06
DTITLE=Juliet Roberts - Caught In The Middle
DYEAR=1994
DGENRE=House
TTITLE0=Caught In The Middle [Album Edit]
TTITLE1=Caught In The Middle [Def Classic U.S. Radio]
TTITLE2=Caught In The Middle [Monster Club Mix]
TTITLE3=Caught In The Middle [Def Classic U.S. Mix]
TTITLE4=Caught In The Middle [Roger S. Gospel Revival Mix Edit]
TTITLE5=Caught In The Middle [Oscar G. Radio Mix]
EXTD=
EXTT0=
EXTT1=
EXTT2=
EXTT3=
EXTT4=
EXTT5=
PLAYORDER=
